HIERARCHY
ROOT mixamorig1:Hips
{
	OFFSET -0.000023 99.754364 3.007850
	CHANNELS 6 Xposition Yposition Zposition Xrotation Yrotation Zrotation
	JOINT mixamorig1:Spine
	{
		OFFSET 0.000000 9.717224 -1.180211
		CHANNELS 3 Xrotation Yrotation Zrotation
		JOINT mixamorig1:Spine1
		{
			OFFSET 0.000000 11.336823 -1.376936
			CHANNELS 3 Xrotation Yrotation Zrotation
			JOINT mixamorig1:Spine2
			{
				OFFSET 0.000000 12.956345 -1.573657
				CHANNELS 3 Xrotation Yrotation Zrotation
				JOINT mixamorig1:Neck
				{
					OFFSET 0.000000 14.575974 -1.770441
					CHANNELS 3 Xrotation Yrotation Zrotation
					JOINT mixamorig1:Head
					{
						OFFSET 0.000000 6.720200 1.972157
						CHANNELS 3 Xrotation Yrotation Zrotation
						JOINT mixamorig1:HeadTop_End
						{
							OFFSET 0.000000 20.999847 6.162758
							CHANNELS 3 Xrotation Yrotation Zrotation
							End Site
							{
								OFFSET 0.000000 21.885452 -0.000004
							}
						}
					}
				}
				JOINT mixamorig1:LeftShoulder
				{
					OFFSET 6.140116 12.877853 -1.799548
					CHANNELS 3 Xrotation Yrotation Zrotation
					JOINT mixamorig1:LeftArm
					{
						OFFSET 12.545031 -3.431427 -0.058010
						CHANNELS 3 Xrotation Yrotation Zrotation
						JOINT mixamorig1:LeftForeArm
						{
							OFFSET 25.447281 -1.876373 -1.505625
							CHANNELS 3 Xrotation Yrotation Zrotation
							JOINT mixamorig1:LeftHand
							{
								OFFSET 23.367504 0.877640 0.971305
								CHANNELS 3 Xrotation Yrotation Zrotation
								JOINT mixamorig1:LeftHandThumb1
								{
									OFFSET 3.575478 -1.761887 3.039434
									CHANNELS 3 Xrotation Yrotation Zrotation
									JOINT mixamorig1:LeftHandThumb2
									{
										OFFSET 2.860405 -1.409454 2.431552
										CHANNELS 3 Xrotation Yrotation Zrotation
										JOINT mixamorig1:LeftHandThumb3
										{
											OFFSET 2.578941 -1.801514 1.750709
											CHANNELS 3 Xrotation Yrotation Zrotation
											JOINT mixamorig1:LeftHandThumb4
											{
												OFFSET 2.408989 -1.461151 1.064221
												CHANNELS 3 Xrotation Yrotation Zrotation
												End Site
												{
													OFFSET 2.176476 -1.503357 1.440013
												}
											}
										}
									}
								}
								JOINT mixamorig1:LeftHandIndex1
								{
									OFFSET 11.357018 -1.306473 4.439679
									CHANNELS 3 Xrotation Yrotation Zrotation
									JOINT mixamorig1:LeftHandIndex2
									{
										OFFSET 3.215240 -0.390930 0.624045
										CHANNELS 3 Xrotation Yrotation Zrotation
										JOINT mixamorig1:LeftHandIndex3
										{
											OFFSET 2.938980 -0.735489 0.560646
											CHANNELS 3 Xrotation Yrotation Zrotation
											JOINT mixamorig1:LeftHandIndex4
											{
												OFFSET 2.552437 -0.779205 0.483288
												CHANNELS 3 Xrotation Yrotation Zrotation
												End Site
												{
													OFFSET 2.555870 -0.777603 0.467434
												}
											}
										}
									}
								}
								JOINT mixamorig1:LeftHandMiddle1
								{
									OFFSET 12.195602 -0.657242 2.108765
									CHANNELS 3 Xrotation Yrotation Zrotation
									JOINT mixamorig1:LeftHandMiddle2
									{
										OFFSET 3.379944 -0.547394 0.236206
										CHANNELS 3 Xrotation Yrotation Zrotation
										JOINT mixamorig1:LeftHandMiddle3
										{
											OFFSET 3.043900 -0.829651 0.195068
											CHANNELS 3 Xrotation Yrotation Zrotation
											JOINT mixamorig1:LeftHandMiddle4
											{
												OFFSET 2.806625 -0.600723 0.188473
												CHANNELS 3 Xrotation Yrotation Zrotation
												End Site
												{
													OFFSET 2.806618 -0.600739 0.188510
												}
											}
										}
									}
								}
								JOINT mixamorig1:LeftHandRing1
								{
									OFFSET 12.563576 -0.458878 -0.154891
									CHANNELS 3 Xrotation Yrotation Zrotation
									JOINT mixamorig1:LeftHandRing2
									{
										OFFSET 2.596565 -0.829819 0.032336
										CHANNELS 3 Xrotation Yrotation Zrotation
										JOINT mixamorig1:LeftHandRing3
										{
											OFFSET 2.548286 -0.608398 0.044838
											CHANNELS 3 Xrotation Yrotation Zrotation
											JOINT mixamorig1:LeftHandRing4
											{
												OFFSET 2.167870 -0.507812 0.038965
												CHANNELS 3 Xrotation Yrotation Zrotation
												End Site
												{
													OFFSET 2.167732 -0.508163 0.042114
												}
											}
										}
									}
								}
								JOINT mixamorig1:LeftHandPinky1
								{
									OFFSET 11.341652 -0.310532 -2.253323
									CHANNELS 3 Xrotation Yrotation Zrotation
									JOINT mixamorig1:LeftHandPinky2
									{
										OFFSET 2.648827 -0.669128 -0.120024
										CHANNELS 3 Xrotation Yrotation Zrotation
										JOINT mixamorig1:LeftHandPinky3
										{
											OFFSET 2.075249 -0.703857 -0.105192
											CHANNELS 3 Xrotation Yrotation Zrotation
											JOINT mixamorig1:LeftHandPinky4
											{
												OFFSET 1.850784 -0.684036 -0.097376
												CHANNELS 3 Xrotation Yrotation Zrotation
												End Site
												{
													OFFSET 1.850731 -0.683411 -0.102854
												}
											}
										}
									}
								}
							}
						}
					}
				}
				JOINT mixamorig1:RightShoulder
				{
					OFFSET -6.140133 12.877823 -1.741391
					CHANNELS 3 Xrotation Yrotation Zrotation
					JOINT mixamorig1:RightArm
					{
						OFFSET -12.545002 -3.431366 0.058123
						CHANNELS 3 Xrotation Yrotation Zrotation
						JOINT mixamorig1:RightForeArm
						{
							OFFSET -25.447330 -1.876465 -1.671036
							CHANNELS 3 Xrotation Yrotation Zrotation
							JOINT mixamorig1:RightHand
							{
								OFFSET -23.367435 0.877640 0.912149
								CHANNELS 3 Xrotation Yrotation Zrotation
								JOINT mixamorig1:RightHandThumb1
								{
									OFFSET -3.655281 -1.787811 3.110017
									CHANNELS 3 Xrotation Yrotation Zrotation
									JOINT mixamorig1:RightHandThumb2
									{
										OFFSET -2.924309 -1.430252 2.488113
										CHANNELS 3 Xrotation Yrotation Zrotation
										JOINT mixamorig1:RightHandThumb3
										{
											OFFSET -2.528549 -1.776962 1.706924
											CHANNELS 3 Xrotation Yrotation Zrotation
											JOINT mixamorig1:RightHandThumb4
											{
												OFFSET -2.443375 -1.162323 1.073468
												CHANNELS 3 Xrotation Yrotation Zrotation
												End Site
												{
													OFFSET -2.204521 -1.202744 1.472025
												}
											}
										}
									}
								}
								JOINT mixamorig1:RightHandIndex1
								{
									OFFSET -11.888382 -1.247833 4.755188
									CHANNELS 3 Xrotation Yrotation Zrotation
									JOINT mixamorig1:RightHandIndex2
									{
										OFFSET -3.042244 -0.516434 0.442817
										CHANNELS 3 Xrotation Yrotation Zrotation
										JOINT mixamorig1:RightHandIndex3
										{
											OFFSET -2.738869 -0.708374 0.392164
											CHANNELS 3 Xrotation Yrotation Zrotation
											JOINT mixamorig1:RightHandIndex4
											{
												OFFSET -2.432571 -0.620773 0.348507
												CHANNELS 3 Xrotation Yrotation Zrotation
												End Site
												{
													OFFSET -2.433441 -0.620270 0.343348
												}
											}
										}
									}
								}
								JOINT mixamorig1:RightHandMiddle1
								{
									OFFSET -12.008347 -0.748550 2.098396
									CHANNELS 3 Xrotation Yrotation Zrotation
									JOINT mixamorig1:RightHandMiddle2
									{
										OFFSET -3.442291 -0.415817 0.287318
										CHANNELS 3 Xrotation Yrotation Zrotation
										JOINT mixamorig1:RightHandMiddle3
										{
											OFFSET -3.106178 -0.837677 0.240102
											CHANNELS 3 Xrotation Yrotation Zrotation
											JOINT mixamorig1:RightHandMiddle4
											{
												OFFSET -2.855728 -0.604996 0.227592
												CHANNELS 3 Xrotation Yrotation Zrotation
												End Site
												{
													OFFSET -2.855972 -0.604736 0.225131
												}
											}
										}
									}
								}
								JOINT mixamorig1:RightHandRing1
								{
									OFFSET -12.328026 -0.608994 -0.015787
									CHANNELS 3 Xrotation Yrotation Zrotation
									JOINT mixamorig1:RightHandRing2
									{
										OFFSET -2.763496 -0.569153 -0.029507
										CHANNELS 3 Xrotation Yrotation Zrotation
										JOINT mixamorig1:RightHandRing3
										{
											OFFSET -2.573975 -0.772354 -0.042469
											CHANNELS 3 Xrotation Yrotation Zrotation
											JOINT mixamorig1:RightHandRing4
											{
												OFFSET -2.323860 -0.456833 -0.023427
												CHANNELS 3 Xrotation Yrotation Zrotation
												End Site
												{
													OFFSET -2.323814 -0.457275 -0.019363
												}
											}
										}
									}
								}
								JOINT mixamorig1:RightHandPinky1
								{
									OFFSET -11.463135 -0.329407 -2.202621
									CHANNELS 3 Xrotation Yrotation Zrotation
									JOINT mixamorig1:RightHandPinky2
									{
										OFFSET -2.569016 -0.599854 -0.108848
										CHANNELS 3 Xrotation Yrotation Zrotation
										JOINT mixamorig1:RightHandPinky3
										{
											OFFSET -2.016190 -0.737000 -0.102787
											CHANNELS 3 Xrotation Yrotation Zrotation
											JOINT mixamorig1:RightHandPinky4
											{
												OFFSET -1.796242 -0.576553 -0.085258
												CHANNELS 3 Xrotation Yrotation Zrotation
												End Site
												{
													OFFSET -1.796211 -0.576279 -0.087722
												}
											}
										}
									}
								}
							}
						}
					}
				}
			}
		}
	}
	JOINT mixamorig1:LeftUpLeg
	{
		OFFSET 8.078197 -5.402374 -0.535866
		CHANNELS 3 Xrotation Yrotation Zrotation
		JOINT mixamorig1:LeftLeg
		{
			OFFSET 3.743073 -42.540520 -2.695453
			CHANNELS 3 Xrotation Yrotation Zrotation
			JOINT mixamorig1:LeftFoot
			{
				OFFSET 3.359008 -41.940849 -2.882240
				CHANNELS 3 Xrotation Yrotation Zrotation
				JOINT mixamorig1:LeftToeBase
				{
					OFFSET 1.133368 -9.116436 13.321875
					CHANNELS 3 Xrotation Yrotation Zrotation
					JOINT mixamorig1:LeftToe_End
					{
						OFFSET 0.591574 -0.054443 6.177378
						CHANNELS 3 Xrotation Yrotation Zrotation
						End Site
						{
							OFFSET 0.591574 -0.054443 6.177376
						}
					}
				}
			}
		}
	}
	JOINT mixamorig1:RightUpLeg
	{
		OFFSET -8.078202 -5.402405 -0.751774
		CHANNELS 3 Xrotation Yrotation Zrotation
		JOINT mixamorig1:RightLeg
		{
			OFFSET -3.743069 -42.540482 -2.464511
			CHANNELS 3 Xrotation Yrotation Zrotation
			JOINT mixamorig1:RightFoot
			{
				OFFSET -3.359002 -41.940781 -2.968969
				CHANNELS 3 Xrotation Yrotation Zrotation
				JOINT mixamorig1:RightToeBase
				{
					OFFSET -1.133408 -9.116797 13.416489
					CHANNELS 3 Xrotation Yrotation Zrotation
					JOINT mixamorig1:RightToe_End
					{
						OFFSET -0.591589 -0.054615 6.151403
						CHANNELS 3 Xrotation Yrotation Zrotation
						End Site
						{
							OFFSET -0.591589 -0.054615 6.151402
						}
					}
				}
			}
		}
	}
}
MOTION
Frames: 4
Frame Time: 0.041667
-90.345329 117.154648 -223.432922 4.180498 -8.898693 -8.806802 16.445583 6.196411 13.696696 0.000003 -0.000000 -0.000001 -6.958546 1.055445 3.015872 -3.727516 -3.126203 -9.547742 -8.201241 -4.642738 6.706527 -0.000002 0.000001 -0.000001 0.000106 0.000091 0.000049 23.611213 -33.967422 -79.101999 42.765781 -65.738959 78.429997 -22.725100 3.107631 0.626887 0.000039 0.000078 -0.000378 -0.000050 -0.000246 0.000510 0.000015 0.000003 0.000010 -0.000006 -0.000004 -0.000002 -0.000053 0.000185 0.000283 5.369736 -1.148618 -7.697179 -0.000005 0.000006 -0.000003 -0.000004 -0.000001 -0.000002 0.000029 0.000601 0.000308 0.958821 -0.151992 -2.905104 -0.000001 -0.000008 -0.000000 0.000002 0.000004 -0.000003 0.000124 0.000160 0.000114 0.715484 -0.155951 -10.277761 0.000008 0.000004 0.000002 0.000004 -0.000002 0.000001 0.000093 -0.000118 0.000086 -0.725282 0.237326 -2.221924 0.000005 -0.000003 0.000005 0.000001 0.000005 0.000008 0.000116 -0.000108 -0.000059 11.011780 43.058318 69.129014 -95.898014 115.630772 53.738108 -8.936661 -1.251252 -0.099052 -0.000007 -0.000375 -0.000112 -0.000107 0.000371 -0.000466 0.000013 -0.000004 -0.000013 -0.000011 -0.000009 0.000003 -0.000051 -0.000123 0.000216 5.369734 1.149025 7.696307 0.000001 0.000001 0.000001 -0.000003 -0.000004 0.000001 -0.000135 0.000163 0.000043 0.958826 0.151853 2.904981 0.000008 0.000003 0.000004 -0.000003 -0.000002 0.000003 0.000025 0.000238 -0.000181 0.715633 0.155546 10.277792 -0.000006 0.000001 0.000008 0.000003 0.000005 0.000004 -0.000160 0.000331 -0.000210 -0.725015 -0.236852 2.221410 -0.000001 -0.000001 -0.000005 -0.000006 -0.000002 -0.000003 -50.667914 -1.768265 5.131860 88.102699 -0.419007 1.058723 2.866153 6.438131 1.227457 -0.000007 -0.000002 0.000002 -0.000000 0.000001 0.000004 -13.820936 -0.859561 6.822805 45.951706 0.984460 -0.259881 -16.157531 -12.638667 -5.462933 0.000006 0.000003 0.000003 -0.000005 0.000002 -0.000001 
-87.523506 120.523651 -202.662262 4.634853 -5.277167 -8.976237 14.959458 6.980523 14.015146 -0.000001 -0.000000 0.000001 -7.380886 1.282279 2.160632 -2.884326 -4.663568 -10.075857 -7.578227 -7.437705 7.259268 -0.000001 -0.000000 -0.000001 0.000106 0.000091 0.000049 26.873062 -36.638108 -79.596402 46.044231 -66.163141 82.230416 -21.758298 2.982569 0.573512 0.000028 0.000079 -0.000377 -0.000061 -0.000243 0.000494 -0.000009 0.000001 -0.000001 -0.000010 -0.000001 0.000003 -0.000043 0.000174 0.000279 5.369742 -1.148618 -7.697182 0.000003 -0.000005 -0.000009 0.000009 -0.000012 -0.000008 0.000035 0.000585 0.000306 0.958811 -0.151994 -2.905098 0.000004 0.000007 -0.000005 0.000002 0.000003 -0.000004 0.000118 0.000169 0.000115 0.715491 -0.155956 -10.277760 -0.000003 0.000000 0.000010 0.000004 -0.000009 0.000000 0.000102 -0.000114 0.000081 -0.725285 0.237316 -2.221929 0.000007 0.000004 -0.000000 0.000010 -0.000009 0.000009 0.000116 -0.000109 -0.000061 14.056985 43.665184 69.338858 -87.239069 118.222173 43.394442 -8.686612 -1.217218 -0.091515 -0.000009 -0.000374 -0.000113 -0.000094 0.000376 -0.000471 0.000007 -0.000001 -0.000009 0.000003 -0.000009 -0.000001 -0.000053 -0.000124 0.000217 5.369719 1.149032 7.696311 -0.000003 -0.000002 0.000001 0.000005 -0.000005 -0.000005 -0.000135 0.000161 0.000045 0.958828 0.151852 2.904977 0.000009 0.000000 0.000007 0.000005 -0.000002 -0.000000 0.000028 0.000239 -0.000182 0.715627 0.155542 10.277787 -0.000000 0.000002 0.000006 0.000003 -0.000002 -0.000000 -0.000164 0.000330 -0.000205 -0.725020 -0.236853 2.221408 -0.000004 0.000000 0.000001 0.000002 -0.000000 0.000001 -51.488548 -3.515871 1.781149 71.369528 -0.522074 0.782964 -0.050208 6.885159 1.550982 0.000000 -0.000003 0.000002 -0.000004 0.000003 0.000003 -1.858920 2.006996 4.747730 37.006501 1.014662 -0.134697 -0.881165 -9.141317 -1.672618 -0.000004 0.000003 0.000003 0.000007 0.000005 -0.000002 
-84.290077 123.483643 -181.925232 4.738107 -2.884394 -8.457191 13.023927 6.986203 12.237471 0.000002 0.000000 0.000000 -7.141629 1.391517 1.582151 -1.708982 -5.615886 -10.147141 -6.723750 -9.060227 7.938723 0.000007 -0.000000 0.000001 0.000108 0.000092 0.000053 28.478202 -38.079882 -80.680845 46.837940 -66.250718 83.149937 -19.620909 2.702365 0.467621 0.000026 0.000077 -0.000376 -0.000050 -0.000246 0.000504 0.000012 0.000003 0.000001 -0.000006 -0.000003 -0.000001 -0.000051 0.000183 0.000282 5.369735 -1.148625 -7.697178 0.000010 -0.000012 0.000013 -0.000002 0.000000 -0.000004 0.000033 0.000586 0.000307 0.958808 -0.151988 -2.905102 0.000002 0.000008 -0.000005 0.000001 0.000001 -0.000002 0.000118 0.000161 0.000112 0.715481 -0.155958 -10.277760 -0.000006 -0.000002 -0.000002 0.000002 -0.000016 -0.000004 0.000094 -0.000122 0.000083 -0.725284 0.237326 -2.221930 0.000008 0.000004 0.000005 0.000003 -0.000007 0.000011 0.000121 -0.000109 -0.000050 18.420380 45.215641 67.868448 -86.458222 118.530611 42.409642 -7.349507 -1.030467 -0.066088 -0.000007 -0.000373 -0.000111 -0.000093 0.000373 -0.000467 0.000007 0.000002 -0.000006 -0.000002 -0.000023 -0.000004 -0.000048 -0.000126 0.000221 5.369724 1.149028 7.696308 -0.000008 -0.000004 -0.000002 0.000003 -0.000003 0.000003 -0.000132 0.000158 0.000048 0.958836 0.151857 2.904986 0.000010 0.000002 0.000008 -0.000004 -0.000002 0.000002 0.000034 0.000233 -0.000171 0.715623 0.155543 10.277783 -0.000000 0.000003 0.000004 0.000003 0.000002 0.000002 -0.000152 0.000329 -0.000201 -0.725017 -0.236855 2.221415 0.000002 -0.000004 0.000004 0.000001 -0.000001 0.000003 -48.494671 -4.233480 -1.376977 50.358718 -0.256196 0.461092 1.715279 2.714858 0.732769 -0.000010 -0.000003 0.000003 -0.000003 0.000001 0.000004 5.077906 5.875460 1.623323 31.090803 0.619488 -0.132879 20.373595 -1.703173 -0.112817 0.000001 0.000004 0.000001 -0.000000 0.000005 -0.000003 
-82.021561 125.131363 -162.386597 5.083916 -2.557286 -8.645637 12.157842 7.670233 10.357967 -0.000003 0.000000 -0.000000 -6.709490 1.642520 0.952728 -1.709567 -6.054751 -9.394940 -6.218241 -10.150466 9.022425 -0.000003 0.000000 0.000001 0.000109 0.000091 0.000047 28.164171 -38.703028 -80.460339 48.230599 -66.391303 84.762094 -18.219658 2.516058 0.403972 0.000028 0.000087 -0.000376 -0.000055 -0.000246 0.000500 0.000004 0.000010 0.000008 -0.000003 0.000005 0.000003 -0.000047 0.000178 0.000276 5.369732 -1.148624 -7.697182 0.000007 0.000004 -0.000000 -0.000001 -0.000004 0.000007 0.000034 0.000596 0.000302 0.958814 -0.151986 -2.905100 -0.000002 0.000001 -0.000005 0.000002 -0.000007 -0.000001 0.000117 0.000168 0.000108 0.715486 -0.155948 -10.277754 -0.000006 -0.000012 0.000009 -0.000001 0.000003 0.000008 0.000097 -0.000114 0.000080 -0.725286 0.237334 -2.221925 0.000003 0.000006 0.000002 0.000004 -0.000002 0.000007 0.000119 -0.000109 -0.000059 20.495507 46.918892 67.869261 -89.971582 117.270209 46.691703 -8.103340 -1.135227 -0.080554 -0.000014 -0.000371 -0.000111 -0.000090 0.000365 -0.000470 0.000018 -0.000010 -0.000008 -0.000009 -0.000017 0.000006 -0.000048 -0.000126 0.000214 5.369731 1.149028 7.696301 0.000002 -0.000001 0.000005 0.000003 -0.000001 -0.000011 -0.000140 0.000165 0.000039 0.958820 0.151855 2.904982 0.000000 -0.000001 0.000007 0.000002 -0.000003 -0.000002 0.000029 0.000233 -0.000183 0.715623 0.155547 10.277780 -0.000005 -0.000000 0.000012 -0.000008 0.000002 0.000010 -0.000160 0.000330 -0.000211 -0.725016 -0.236851 2.221394 -0.000004 -0.000002 -0.000011 -0.000001 -0.000000 -0.000010 -45.211850 -3.398567 -1.160573 35.104331 0.267389 0.282959 6.991580 2.889263 0.273516 0.000004 -0.000000 0.000002 0.000000 0.000002 0.000003 3.369256 9.815066 1.866523 37.652200 0.382464 -0.271942 25.913538 1.169764 -0.794045 -0.000004 0.000005 0.000001 -0.000004 0.000002 -0.000001 
